<mxfile host="app.diagrams.net" modified="2021-01-11T01:46:33.869Z" agent="5.0 (X11)" etag="EzN6a2EHUUVhDIdUL1Hh" version="13.6.4" type="github">
  <diagram id="AU5qfzzmxcxvSxv4nViD" name="Page-1">
    <mxGraphModel dx="2444" dy="1986" grid="1" gridSize="10" guides="1" tooltips="1" connect="1" arrows="1" fold="1" page="1" pageScale="1" pageWidth="850" pageHeight="1100" math="0" shadow="0">
      <root>
        <mxCell id="0" />
        <mxCell id="1" parent="0" />
        <mxCell id="cy3KbnZWKvAGtibyREPJ-79" value="" style="rounded=0;whiteSpace=wrap;html=1;strokeColor=#000000;fillColor=none;" vertex="1" parent="1">
          <mxGeometry x="420" y="-100" width="340" height="140" as="geometry" />
        </mxCell>
        <mxCell id="cy3KbnZWKvAGtibyREPJ-66" value="" style="rounded=0;whiteSpace=wrap;html=1;fontColor=#333333;fillColor=none;" vertex="1" parent="1">
          <mxGeometry x="-10" y="50" width="770" height="330" as="geometry" />
        </mxCell>
        <mxCell id="cy3KbnZWKvAGtibyREPJ-4" value="Sync" style="rounded=1;whiteSpace=wrap;html=1;fillColor=none;" vertex="1" parent="1">
          <mxGeometry x="560" y="250" width="120" height="60" as="geometry" />
        </mxCell>
        <mxCell id="cy3KbnZWKvAGtibyREPJ-5" value="CLASS" style="rounded=1;whiteSpace=wrap;html=1;fillColor=none;" vertex="1" parent="1">
          <mxGeometry x="540" y="-40" width="120" height="60" as="geometry" />
        </mxCell>
        <mxCell id="cy3KbnZWKvAGtibyREPJ-6" value="" style="endArrow=classic;html=1;entryX=1;entryY=0.5;entryDx=0;entryDy=0;exitX=0;exitY=0.5;exitDx=0;exitDy=0;" edge="1" parent="1" target="cy3KbnZWKvAGtibyREPJ-5">
          <mxGeometry width="50" height="50" relative="1" as="geometry">
            <mxPoint x="699.9999999999998" y="-10" as="sourcePoint" />
            <mxPoint x="760" y="-40" as="targetPoint" />
          </mxGeometry>
        </mxCell>
        <mxCell id="cy3KbnZWKvAGtibyREPJ-7" value="INPUT" style="text;html=1;strokeColor=none;fillColor=none;align=center;verticalAlign=middle;whiteSpace=wrap;rounded=0;" vertex="1" parent="1">
          <mxGeometry x="705" y="-20" width="50" height="20" as="geometry" />
        </mxCell>
        <mxCell id="cy3KbnZWKvAGtibyREPJ-10" value="" style="endArrow=classic;html=1;exitX=0;exitY=0.5;exitDx=0;exitDy=0;" edge="1" parent="1" source="cy3KbnZWKvAGtibyREPJ-5">
          <mxGeometry width="50" height="50" relative="1" as="geometry">
            <mxPoint x="490" y="70" as="sourcePoint" />
            <mxPoint x="500" y="-10" as="targetPoint" />
          </mxGeometry>
        </mxCell>
        <mxCell id="cy3KbnZWKvAGtibyREPJ-72" value="" style="edgeStyle=orthogonalEdgeStyle;rounded=0;orthogonalLoop=1;jettySize=auto;html=1;startArrow=classic;startFill=1;endArrow=none;endFill=0;" edge="1" parent="1" source="cy3KbnZWKvAGtibyREPJ-11" target="cy3KbnZWKvAGtibyREPJ-12">
          <mxGeometry relative="1" as="geometry" />
        </mxCell>
        <mxCell id="cy3KbnZWKvAGtibyREPJ-11" value="OUTPUT" style="text;html=1;strokeColor=none;fillColor=none;align=center;verticalAlign=middle;whiteSpace=wrap;rounded=0;" vertex="1" parent="1">
          <mxGeometry x="440" y="-20" width="60" height="20" as="geometry" />
        </mxCell>
        <mxCell id="cy3KbnZWKvAGtibyREPJ-60" style="edgeStyle=orthogonalEdgeStyle;rounded=0;orthogonalLoop=1;jettySize=auto;html=1;exitX=1;exitY=0.75;exitDx=0;exitDy=0;endArrow=oval;endFill=1;" edge="1" parent="1" source="cy3KbnZWKvAGtibyREPJ-12">
          <mxGeometry relative="1" as="geometry">
            <mxPoint x="700" y="10" as="targetPoint" />
          </mxGeometry>
        </mxCell>
        <mxCell id="cy3KbnZWKvAGtibyREPJ-12" value="" style="rounded=0;whiteSpace=wrap;html=1;fillColor=none;" vertex="1" parent="1">
          <mxGeometry x="530" y="-50" width="140" height="80" as="geometry" />
        </mxCell>
        <mxCell id="cy3KbnZWKvAGtibyREPJ-13" value="THREAD" style="text;html=1;strokeColor=none;fillColor=none;align=center;verticalAlign=middle;whiteSpace=wrap;rounded=0;" vertex="1" parent="1">
          <mxGeometry x="580" y="-70" width="50" height="20" as="geometry" />
        </mxCell>
        <mxCell id="cy3KbnZWKvAGtibyREPJ-16" value="&lt;font size=&quot;1&quot;&gt;&lt;b style=&quot;font-size: 16px&quot;&gt;Definition:&lt;/b&gt;&lt;/font&gt;" style="text;html=1;strokeColor=none;fillColor=none;align=center;verticalAlign=middle;whiteSpace=wrap;rounded=0;" vertex="1" parent="1">
          <mxGeometry x="430" y="-90" width="100" height="30" as="geometry" />
        </mxCell>
        <mxCell id="cy3KbnZWKvAGtibyREPJ-17" value="" style="endArrow=oval;html=1;exitX=0.5;exitY=1;exitDx=0;exitDy=0;endFill=1;" edge="1" parent="1" source="cy3KbnZWKvAGtibyREPJ-4">
          <mxGeometry width="50" height="50" relative="1" as="geometry">
            <mxPoint x="630" y="390" as="sourcePoint" />
            <mxPoint x="620" y="340" as="targetPoint" />
          </mxGeometry>
        </mxCell>
        <mxCell id="cy3KbnZWKvAGtibyREPJ-31" style="edgeStyle=orthogonalEdgeStyle;rounded=0;orthogonalLoop=1;jettySize=auto;html=1;exitX=0;exitY=0.5;exitDx=0;exitDy=0;entryX=1;entryY=0.5;entryDx=0;entryDy=0;endArrow=classic;endFill=1;" edge="1" parent="1" source="cy3KbnZWKvAGtibyREPJ-18" target="cy3KbnZWKvAGtibyREPJ-27">
          <mxGeometry relative="1" as="geometry">
            <Array as="points">
              <mxPoint x="370" y="140" />
              <mxPoint x="370" y="140" />
            </Array>
          </mxGeometry>
        </mxCell>
        <mxCell id="cy3KbnZWKvAGtibyREPJ-32" value="velocity" style="edgeLabel;html=1;align=center;verticalAlign=middle;resizable=0;points=[];" vertex="1" connectable="0" parent="cy3KbnZWKvAGtibyREPJ-31">
          <mxGeometry x="-0.2308" relative="1" as="geometry">
            <mxPoint x="-9.2" as="offset" />
          </mxGeometry>
        </mxCell>
        <mxCell id="cy3KbnZWKvAGtibyREPJ-40" style="edgeStyle=orthogonalEdgeStyle;rounded=0;orthogonalLoop=1;jettySize=auto;html=1;exitX=0;exitY=0.75;exitDx=0;exitDy=0;entryX=1;entryY=0.5;entryDx=0;entryDy=0;endArrow=classic;endFill=1;" edge="1" parent="1" source="cy3KbnZWKvAGtibyREPJ-18" target="cy3KbnZWKvAGtibyREPJ-37">
          <mxGeometry relative="1" as="geometry" />
        </mxCell>
        <mxCell id="cy3KbnZWKvAGtibyREPJ-42" value="speed" style="edgeLabel;html=1;align=center;verticalAlign=middle;resizable=0;points=[];" vertex="1" connectable="0" parent="cy3KbnZWKvAGtibyREPJ-40">
          <mxGeometry x="-0.1355" y="-2" relative="1" as="geometry">
            <mxPoint x="2" y="8.2" as="offset" />
          </mxGeometry>
        </mxCell>
        <mxCell id="cy3KbnZWKvAGtibyREPJ-18" value="Velocity" style="rounded=1;whiteSpace=wrap;html=1;fillColor=none;" vertex="1" parent="1">
          <mxGeometry x="400" y="110" width="120" height="60" as="geometry" />
        </mxCell>
        <mxCell id="cy3KbnZWKvAGtibyREPJ-22" style="edgeStyle=orthogonalEdgeStyle;rounded=0;orthogonalLoop=1;jettySize=auto;html=1;exitX=0;exitY=0.5;exitDx=0;exitDy=0;entryX=0.5;entryY=0;entryDx=0;entryDy=0;endArrow=classic;endFill=1;" edge="1" parent="1" source="cy3KbnZWKvAGtibyREPJ-19" target="cy3KbnZWKvAGtibyREPJ-18">
          <mxGeometry relative="1" as="geometry" />
        </mxCell>
        <mxCell id="cy3KbnZWKvAGtibyREPJ-25" value="throttle" style="edgeLabel;html=1;align=center;verticalAlign=middle;resizable=0;points=[];" vertex="1" connectable="0" parent="cy3KbnZWKvAGtibyREPJ-22">
          <mxGeometry x="0.0333" relative="1" as="geometry">
            <mxPoint x="12" as="offset" />
          </mxGeometry>
        </mxCell>
        <mxCell id="cy3KbnZWKvAGtibyREPJ-19" value="Motor(s)" style="rounded=1;whiteSpace=wrap;html=1;fillColor=none;" vertex="1" parent="1">
          <mxGeometry x="560" y="60" width="120" height="60" as="geometry" />
        </mxCell>
        <mxCell id="cy3KbnZWKvAGtibyREPJ-23" style="edgeStyle=orthogonalEdgeStyle;rounded=0;orthogonalLoop=1;jettySize=auto;html=1;exitX=0;exitY=0.5;exitDx=0;exitDy=0;entryX=0.5;entryY=1;entryDx=0;entryDy=0;endArrow=classic;endFill=1;" edge="1" parent="1" source="cy3KbnZWKvAGtibyREPJ-21" target="cy3KbnZWKvAGtibyREPJ-18">
          <mxGeometry relative="1" as="geometry" />
        </mxCell>
        <mxCell id="cy3KbnZWKvAGtibyREPJ-26" value="angle" style="edgeLabel;html=1;align=center;verticalAlign=middle;resizable=0;points=[];" vertex="1" connectable="0" parent="cy3KbnZWKvAGtibyREPJ-23">
          <mxGeometry x="0.0167" y="3" relative="1" as="geometry">
            <mxPoint x="11.2" y="-3" as="offset" />
          </mxGeometry>
        </mxCell>
        <mxCell id="cy3KbnZWKvAGtibyREPJ-64" style="edgeStyle=orthogonalEdgeStyle;rounded=0;orthogonalLoop=1;jettySize=auto;html=1;exitX=1;exitY=0.5;exitDx=0;exitDy=0;endArrow=none;endFill=0;startArrow=classic;startFill=1;" edge="1" parent="1" source="cy3KbnZWKvAGtibyREPJ-21">
          <mxGeometry relative="1" as="geometry">
            <mxPoint x="710" y="440" as="targetPoint" />
          </mxGeometry>
        </mxCell>
        <mxCell id="cy3KbnZWKvAGtibyREPJ-21" value="Rudder(s)" style="rounded=1;whiteSpace=wrap;html=1;fillColor=none;" vertex="1" parent="1">
          <mxGeometry x="560" y="160" width="120" height="60" as="geometry" />
        </mxCell>
        <mxCell id="cy3KbnZWKvAGtibyREPJ-45" style="edgeStyle=orthogonalEdgeStyle;rounded=0;orthogonalLoop=1;jettySize=auto;html=1;exitX=0;exitY=0.5;exitDx=0;exitDy=0;entryX=1;entryY=0.5;entryDx=0;entryDy=0;endArrow=classic;endFill=1;" edge="1" parent="1" source="cy3KbnZWKvAGtibyREPJ-27" target="cy3KbnZWKvAGtibyREPJ-44">
          <mxGeometry relative="1" as="geometry">
            <Array as="points">
              <mxPoint x="160" y="140" />
              <mxPoint x="160" y="140" />
            </Array>
          </mxGeometry>
        </mxCell>
        <mxCell id="cy3KbnZWKvAGtibyREPJ-51" value="(X,Y)" style="edgeLabel;html=1;align=center;verticalAlign=middle;resizable=0;points=[];" vertex="1" connectable="0" parent="cy3KbnZWKvAGtibyREPJ-45">
          <mxGeometry x="0.3333" y="-14" relative="1" as="geometry">
            <mxPoint x="10" y="14" as="offset" />
          </mxGeometry>
        </mxCell>
        <mxCell id="cy3KbnZWKvAGtibyREPJ-27" value="Position" style="rounded=1;whiteSpace=wrap;html=1;fillColor=none;" vertex="1" parent="1">
          <mxGeometry x="200" y="110" width="120" height="60" as="geometry" />
        </mxCell>
        <mxCell id="cy3KbnZWKvAGtibyREPJ-56" style="edgeStyle=orthogonalEdgeStyle;rounded=0;orthogonalLoop=1;jettySize=auto;html=1;exitX=1;exitY=0.75;exitDx=0;exitDy=0;endArrow=oval;endFill=1;" edge="1" parent="1" source="cy3KbnZWKvAGtibyREPJ-28">
          <mxGeometry relative="1" as="geometry">
            <mxPoint x="350" y="160.33333333333348" as="targetPoint" />
          </mxGeometry>
        </mxCell>
        <mxCell id="cy3KbnZWKvAGtibyREPJ-28" value="" style="rounded=0;whiteSpace=wrap;html=1;fillColor=none;" vertex="1" parent="1">
          <mxGeometry x="190" y="100" width="140" height="80" as="geometry" />
        </mxCell>
        <mxCell id="cy3KbnZWKvAGtibyREPJ-57" style="edgeStyle=orthogonalEdgeStyle;rounded=0;orthogonalLoop=1;jettySize=auto;html=1;exitX=1;exitY=0.75;exitDx=0;exitDy=0;endArrow=oval;endFill=1;" edge="1" parent="1" source="cy3KbnZWKvAGtibyREPJ-29">
          <mxGeometry relative="1" as="geometry">
            <mxPoint x="350" y="250.33333333333348" as="targetPoint" />
          </mxGeometry>
        </mxCell>
        <mxCell id="cy3KbnZWKvAGtibyREPJ-29" value="" style="rounded=0;whiteSpace=wrap;html=1;fillColor=none;" vertex="1" parent="1">
          <mxGeometry x="190" y="190" width="140" height="80" as="geometry" />
        </mxCell>
        <mxCell id="cy3KbnZWKvAGtibyREPJ-59" style="edgeStyle=orthogonalEdgeStyle;rounded=0;orthogonalLoop=1;jettySize=auto;html=1;exitX=1;exitY=0.75;exitDx=0;exitDy=0;endArrow=oval;endFill=1;" edge="1" parent="1" source="cy3KbnZWKvAGtibyREPJ-34">
          <mxGeometry relative="1" as="geometry">
            <mxPoint x="550" y="160.33333333333348" as="targetPoint" />
          </mxGeometry>
        </mxCell>
        <mxCell id="cy3KbnZWKvAGtibyREPJ-34" value="" style="rounded=0;whiteSpace=wrap;html=1;fillColor=none;" vertex="1" parent="1">
          <mxGeometry x="390" y="100" width="140" height="80" as="geometry" />
        </mxCell>
        <mxCell id="cy3KbnZWKvAGtibyREPJ-47" style="edgeStyle=orthogonalEdgeStyle;rounded=0;orthogonalLoop=1;jettySize=auto;html=1;exitX=0;exitY=0.5;exitDx=0;exitDy=0;endArrow=classic;endFill=1;" edge="1" parent="1" source="cy3KbnZWKvAGtibyREPJ-37">
          <mxGeometry relative="1" as="geometry">
            <mxPoint x="110" y="480" as="targetPoint" />
          </mxGeometry>
        </mxCell>
        <mxCell id="cy3KbnZWKvAGtibyREPJ-53" value="speed" style="edgeLabel;html=1;align=center;verticalAlign=middle;resizable=0;points=[];rotation=0;" vertex="1" connectable="0" parent="cy3KbnZWKvAGtibyREPJ-47">
          <mxGeometry x="0.6292" relative="1" as="geometry">
            <mxPoint y="-113.32999999999998" as="offset" />
          </mxGeometry>
        </mxCell>
        <mxCell id="cy3KbnZWKvAGtibyREPJ-37" value="Speedometer" style="rounded=1;whiteSpace=wrap;html=1;fillColor=none;" vertex="1" parent="1">
          <mxGeometry x="200" y="200" width="120" height="60" as="geometry" />
        </mxCell>
        <mxCell id="cy3KbnZWKvAGtibyREPJ-48" style="edgeStyle=orthogonalEdgeStyle;rounded=0;orthogonalLoop=1;jettySize=auto;html=1;exitX=0;exitY=0.5;exitDx=0;exitDy=0;endArrow=classic;endFill=1;" edge="1" parent="1" source="cy3KbnZWKvAGtibyREPJ-38">
          <mxGeometry relative="1" as="geometry">
            <mxPoint x="140" y="480" as="targetPoint" />
          </mxGeometry>
        </mxCell>
        <mxCell id="cy3KbnZWKvAGtibyREPJ-54" value="direction" style="edgeLabel;html=1;align=center;verticalAlign=middle;resizable=0;points=[];" vertex="1" connectable="0" parent="cy3KbnZWKvAGtibyREPJ-48">
          <mxGeometry x="0.7" relative="1" as="geometry">
            <mxPoint y="-96.67" as="offset" />
          </mxGeometry>
        </mxCell>
        <mxCell id="cy3KbnZWKvAGtibyREPJ-38" value="Compass" style="rounded=1;whiteSpace=wrap;html=1;fillColor=none;" vertex="1" parent="1">
          <mxGeometry x="200" y="290" width="120" height="60" as="geometry" />
        </mxCell>
        <mxCell id="cy3KbnZWKvAGtibyREPJ-39" value="" style="endArrow=classic;html=1;exitX=0.25;exitY=1;exitDx=0;exitDy=0;entryX=1;entryY=0.5;entryDx=0;entryDy=0;rounded=0;" edge="1" parent="1" source="cy3KbnZWKvAGtibyREPJ-18" target="cy3KbnZWKvAGtibyREPJ-38">
          <mxGeometry width="50" height="50" relative="1" as="geometry">
            <mxPoint x="400" y="290" as="sourcePoint" />
            <mxPoint x="450" y="240" as="targetPoint" />
            <Array as="points">
              <mxPoint x="430" y="320" />
            </Array>
          </mxGeometry>
        </mxCell>
        <mxCell id="cy3KbnZWKvAGtibyREPJ-43" value="direction" style="edgeLabel;html=1;align=center;verticalAlign=middle;resizable=0;points=[];" vertex="1" connectable="0" parent="cy3KbnZWKvAGtibyREPJ-39">
          <mxGeometry x="-0.2462" y="2" relative="1" as="geometry">
            <mxPoint y="-28" as="offset" />
          </mxGeometry>
        </mxCell>
        <mxCell id="cy3KbnZWKvAGtibyREPJ-58" style="edgeStyle=orthogonalEdgeStyle;rounded=0;orthogonalLoop=1;jettySize=auto;html=1;exitX=1;exitY=0.75;exitDx=0;exitDy=0;endArrow=oval;endFill=1;" edge="1" parent="1" source="cy3KbnZWKvAGtibyREPJ-41">
          <mxGeometry relative="1" as="geometry">
            <mxPoint x="350" y="340.3333333333335" as="targetPoint" />
          </mxGeometry>
        </mxCell>
        <mxCell id="cy3KbnZWKvAGtibyREPJ-41" value="" style="rounded=0;whiteSpace=wrap;html=1;fillColor=none;" vertex="1" parent="1">
          <mxGeometry x="190" y="280" width="140" height="80" as="geometry" />
        </mxCell>
        <mxCell id="cy3KbnZWKvAGtibyREPJ-46" style="edgeStyle=orthogonalEdgeStyle;rounded=0;orthogonalLoop=1;jettySize=auto;html=1;exitX=0.5;exitY=1;exitDx=0;exitDy=0;endArrow=classic;endFill=1;" edge="1" parent="1" source="cy3KbnZWKvAGtibyREPJ-44">
          <mxGeometry relative="1" as="geometry">
            <mxPoint x="80" y="480" as="targetPoint" />
          </mxGeometry>
        </mxCell>
        <mxCell id="cy3KbnZWKvAGtibyREPJ-52" value="position" style="edgeLabel;html=1;align=center;verticalAlign=middle;resizable=0;points=[];" vertex="1" connectable="0" parent="cy3KbnZWKvAGtibyREPJ-46">
          <mxGeometry x="-0.2052" relative="1" as="geometry">
            <mxPoint y="-33.329999999999984" as="offset" />
          </mxGeometry>
        </mxCell>
        <mxCell id="cy3KbnZWKvAGtibyREPJ-44" value="GPS" style="rounded=1;whiteSpace=wrap;html=1;fillColor=none;" vertex="1" parent="1">
          <mxGeometry x="20" y="110" width="120" height="60" as="geometry" />
        </mxCell>
        <mxCell id="cy3KbnZWKvAGtibyREPJ-49" value="" style="rounded=0;whiteSpace=wrap;html=1;fillColor=none;" vertex="1" parent="1">
          <mxGeometry x="10" y="100" width="140" height="80" as="geometry" />
        </mxCell>
        <mxCell id="cy3KbnZWKvAGtibyREPJ-55" value="" style="endArrow=oval;html=1;endFill=1;exitX=1;exitY=0.75;exitDx=0;exitDy=0;" edge="1" parent="1" source="cy3KbnZWKvAGtibyREPJ-49">
          <mxGeometry width="50" height="50" relative="1" as="geometry">
            <mxPoint x="160" y="170" as="sourcePoint" />
            <mxPoint x="170" y="160" as="targetPoint" />
          </mxGeometry>
        </mxCell>
        <mxCell id="cy3KbnZWKvAGtibyREPJ-61" value="SYNC" style="text;html=1;strokeColor=none;fillColor=none;align=center;verticalAlign=middle;whiteSpace=wrap;rounded=0;" vertex="1" parent="1">
          <mxGeometry x="705" width="40" height="20" as="geometry" />
        </mxCell>
        <mxCell id="cy3KbnZWKvAGtibyREPJ-62" value="" style="rounded=0;whiteSpace=wrap;html=1;fillColor=none;" vertex="1" parent="1">
          <mxGeometry x="550" y="240" width="140" height="80" as="geometry" />
        </mxCell>
        <mxCell id="cy3KbnZWKvAGtibyREPJ-63" value="" style="endArrow=classic;html=1;entryX=1;entryY=0.5;entryDx=0;entryDy=0;rounded=0;" edge="1" parent="1" target="cy3KbnZWKvAGtibyREPJ-19">
          <mxGeometry width="50" height="50" relative="1" as="geometry">
            <mxPoint x="740" y="440" as="sourcePoint" />
            <mxPoint x="760" y="350" as="targetPoint" />
            <Array as="points">
              <mxPoint x="740" y="90" />
            </Array>
          </mxGeometry>
        </mxCell>
        <mxCell id="cy3KbnZWKvAGtibyREPJ-68" value="&lt;b&gt;Physics and instruments:&lt;/b&gt;" style="text;html=1;strokeColor=none;fillColor=none;align=center;verticalAlign=middle;whiteSpace=wrap;rounded=0;" vertex="1" parent="1">
          <mxGeometry y="60" width="180" height="20" as="geometry" />
        </mxCell>
        <mxCell id="cy3KbnZWKvAGtibyREPJ-69" value="" style="rounded=0;whiteSpace=wrap;html=1;strokeColor=#000000;fillColor=none;" vertex="1" parent="1">
          <mxGeometry x="-10" y="400" width="770" height="170" as="geometry" />
        </mxCell>
        <mxCell id="cy3KbnZWKvAGtibyREPJ-70" value="&lt;b&gt;Controlpanel:&lt;/b&gt;" style="text;html=1;strokeColor=none;fillColor=none;align=center;verticalAlign=middle;whiteSpace=wrap;rounded=0;" vertex="1" parent="1">
          <mxGeometry y="540" width="90" height="20" as="geometry" />
        </mxCell>
        <mxCell id="cy3KbnZWKvAGtibyREPJ-78" value="&lt;b&gt;&lt;font style=&quot;font-size: 32px&quot;&gt;Overview:&lt;/font&gt;&lt;/b&gt;" style="text;html=1;strokeColor=none;fillColor=none;align=center;verticalAlign=middle;whiteSpace=wrap;rounded=0;" vertex="1" parent="1">
          <mxGeometry x="-10" y="-90" width="190" height="30" as="geometry" />
        </mxCell>
      </root>
    </mxGraphModel>
  </diagram>
</mxfile>
